<svg xmlns="http://www.w3.org/2000/svg" xmlns:xlink="http://www.w3.org/1999/xlink" version="1.1" x="0px" y="0px" viewBox="0 0 100 100" enable-background="new 0 0 100 100" xml:space="preserve"><g><path d="M6.75,32.642h82.275L77.87,43.797c-0.683,0.683-0.683,1.791,0,2.475s1.791,0.683,2.475,0L94.487,32.13   c0.081-0.081,0.154-0.171,0.218-0.267c0.029-0.043,0.049-0.09,0.073-0.135c0.03-0.055,0.064-0.108,0.088-0.167   c0.024-0.058,0.038-0.118,0.055-0.178c0.015-0.05,0.034-0.097,0.044-0.149c0.045-0.226,0.045-0.459,0-0.686   c-0.01-0.051-0.029-0.099-0.044-0.149c-0.017-0.06-0.031-0.12-0.055-0.178c-0.024-0.059-0.058-0.112-0.088-0.167   c-0.025-0.045-0.044-0.092-0.073-0.135c-0.064-0.096-0.137-0.186-0.218-0.267L80.345,15.513c-0.683-0.683-1.791-0.683-2.475,0   s-0.683,1.792,0,2.475l11.155,11.155H6.75c-0.966,0-1.75,0.784-1.75,1.75S5.784,32.642,6.75,32.642z"></path><path d="M93.25,67.358H10.975L22.13,56.203c0.683-0.683,0.683-1.792,0-2.475s-1.791-0.683-2.475,0L5.513,67.87   c-0.081,0.081-0.154,0.171-0.218,0.267c-0.029,0.043-0.049,0.09-0.073,0.135c-0.03,0.055-0.064,0.108-0.088,0.167   c-0.024,0.058-0.038,0.118-0.055,0.178c-0.015,0.05-0.034,0.097-0.044,0.149c-0.045,0.226-0.045,0.459,0,0.686   c0.01,0.051,0.029,0.099,0.044,0.149c0.017,0.06,0.031,0.12,0.055,0.178c0.024,0.059,0.058,0.112,0.088,0.167   c0.025,0.045,0.044,0.092,0.073,0.135c0.064,0.096,0.137,0.186,0.218,0.267l14.142,14.142c0.683,0.683,1.791,0.683,2.475,0   s0.683-1.791,0-2.475L10.975,70.858H93.25c0.966,0,1.75-0.784,1.75-1.75S94.216,67.358,93.25,67.358z"></path></g></svg>