<svg xmlns="http://www.w3.org/2000/svg" xmlns:xlink="http://www.w3.org/1999/xlink" version="1.0" x="0px" y="0px" viewBox="0 0 100 100" enable-background="new 0 0 100 100" xml:space="preserve"><path fill="none" stroke="#000000" stroke-width="2" stroke-linecap="round" stroke-linejoin="round" stroke-miterlimit="10" d="  M45,31.25v12.5V31.25z"></path><path fill="none" stroke="#000000" stroke-width="2" stroke-linecap="round" stroke-linejoin="round" stroke-miterlimit="10" d="  M32.5,31.25v12.5V31.25z"></path><path fill="none" stroke="#000000" stroke-width="2" stroke-linecap="round" stroke-linejoin="round" stroke-miterlimit="10" d="  M20.001,31.25v12.5V31.25z"></path><circle fill="none" stroke="#000000" stroke-width="2" stroke-linecap="round" stroke-linejoin="round" stroke-miterlimit="10" cx="27.501" cy="61.251" r="7.5"></circle><circle fill="none" stroke="#000000" stroke-width="2" stroke-linecap="round" stroke-linejoin="round" stroke-miterlimit="10" cx="72.5" cy="61.251" r="7.5"></circle><path fill="none" stroke="#000000" stroke-width="2" stroke-linecap="round" stroke-linejoin="round" stroke-miterlimit="10" d="  M90,53.752c0-1.102-0.221-2.148-0.618-3.109c-0.412-0.992-1.011-1.888-1.759-2.635c-0.749-0.748-1.644-1.348-2.636-1.758L70,43.75  H10.002v9.998c0,4.142,3.358,7.501,7.499,7.501v0.002h2.5c0-4.143,3.359-7.501,7.5-7.501c4.144,0,7.499,3.358,7.499,7.501h30  c0-4.143,3.357-7.501,7.501-7.501c4.143,0,7.5,3.358,7.5,7.501h2.498C86.642,61.251,90,57.892,90,53.752z"></path><polygon fill="none" stroke="#000000" stroke-width="2" stroke-linecap="round" stroke-linejoin="round" stroke-miterlimit="10" points="  10,43.75 70,43.75 55,31.25 10,31.25 "></polygon><path fill="none" stroke="#000000" stroke-width="2" stroke-linecap="round" stroke-linejoin="round" stroke-miterlimit="10" d="  M48.249,50h4.999H48.249z"></path></svg>