<?xml version="1.0" encoding="utf-8"?>
<!-- Generator: Adobe Illustrator 19.2.0, SVG Export Plug-In . SVG Version: 6.00 Build 0)  -->
<svg version="1.1" id="Layer_1" xmlns="http://www.w3.org/2000/svg" xmlns:xlink="http://www.w3.org/1999/xlink" x="0px" y="0px"
	 viewBox="0 0 100 100" style="enable-background:new 0 0 100 100;" xml:space="preserve">
<g>
	<path d="M9.6,50.1v5.5c0,1,0.9,2.2,1.7,2.9l1.3,1.1c0.9,0.8,2.6,1.4,3.8,1.4h6.8c1,0,1.8-0.8,1.8-1.8c0-3.9,3.1-7,7-7s7,3.1,7,7
		c0,1,0.8,1.8,1.8,1.8H72c1,0,1.8-0.8,1.8-1.8c0-3.9,3.1-7,7-7s7,3.1,7,7c0,0.3,0.2,0.5,0.5,0.5h3c1.3,0,2.6-0.7,3.1-1.5l1.3-2.5
		c0.4-0.8,0.4-2.4,0-3.5l-1.2-3.7c-0.4-1.3-1.8-2.2-3.1-2.2H76.5c-1,0-2.5-0.5-3.3-1.1L62,37c-1-0.7-2.7-1.3-3.9-1.3H17.8
		c-1.3,0-2.8,0.9-3.3,2.1l-3.9,8.3C10,47.2,9.6,49,9.6,50.1z M50.9,38.7c0-0.3,0.2-0.5,0.5-0.5h6.5c0.7,0,1.6,0.3,2.1,0.7l9.8,7.5
		c0,0,0,0,0,0c0,0,0,0,0.1,0.1c0,0,0,0,0.1,0.1s0,0.1,0,0.1c0,0,0,0.1,0,0.1c0,0,0,0,0,0c0,0,0,0,0,0.1c0,0,0,0.1,0,0.1
		c0,0,0,0.1,0,0.1c0,0,0,0,0,0.1c0,0,0,0,0,0c0,0-0.1,0.1-0.1,0.1c0,0,0,0,0,0c-0.1,0-0.1,0-0.2,0H51.4c-0.3,0-0.5-0.2-0.5-0.5V38.7
		z M37.1,46.8l1.9-8.1c0.1-0.2,0.3-0.4,0.5-0.4h9.4c0.3,0,0.5,0.2,0.5,0.5v8.1c0,0.3-0.2,0.5-0.5,0.5H37.6c-0.2,0-0.3-0.1-0.4-0.2
		C37.1,47.1,37.1,46.9,37.1,46.8z M25.2,46.9c0-0.1,0-0.2,0.1-0.3l2.5-8c0.1-0.2,0.3-0.4,0.5-0.4H37c0.2,0,0.3,0.1,0.4,0.2
		s0.1,0.3,0.1,0.4L35.6,47c-0.1,0.2-0.3,0.4-0.5,0.4h-9.4c0,0,0,0,0,0C25.5,47.4,25.2,47.2,25.2,46.9z M13.4,46.9
		C13.4,46.9,13.4,46.9,13.4,46.9c0,0,0-0.1,0-0.1c0,0,0-0.1,0-0.1c0,0,0,0,0,0l3.3-7.2c0.3-0.7,1.1-1.2,1.9-1.2h7.1c0,0,0,0,0.1,0
		c0,0,0,0,0.1,0c0,0,0,0,0,0c0,0,0.1,0,0.1,0.1c0,0,0.1,0,0.1,0c0,0,0,0,0.1,0.1c0,0,0,0,0.1,0.1c0,0,0,0.1,0,0.1c0,0,0,0.1,0,0.1
		c0,0,0,0,0,0c0,0,0,0,0,0.1c0,0,0,0,0,0.1L23.7,47c-0.1,0.2-0.3,0.4-0.5,0.4h-9.4c-0.1,0-0.1,0-0.2,0c0,0,0,0,0,0c0,0,0,0-0.1,0
		c0,0-0.1,0-0.1-0.1c0,0,0,0-0.1-0.1c0,0,0-0.1-0.1-0.1C13.4,47,13.4,47,13.4,46.9C13.4,46.9,13.4,46.9,13.4,46.9z"/>
	<circle cx="80.9" cy="59.4" r="5.6"/>
	<circle cx="32.1" cy="59.4" r="5.6"/>
</g>
</svg>
